# Blender v2.93.0 OBJ File: '01_practice_kite-texture.blend'
# www.blender.org
mtllib 01_practice_kite-texture.mtl
o Cube
v 2.788162 0.040436 -0.000227
v 2.788162 -0.040436 -0.000227
v 0.001701 0.040436 1.481167
v 0.001701 -0.040436 1.481167
v -0.001701 0.040436 -1.481167
v -0.001701 -0.040436 -1.481167
v -2.788162 0.040436 0.000227
v -2.788162 -0.040436 0.000227
vt 0.985935 0.012701
vt 0.987299 0.993747
vt 0.006253 0.995112
vt 0.004888 0.014065
vt 0.008285 0.965316
vt 0.030778 0.965316
vt 0.030778 0.987809
vt 0.008285 0.987809
vt 0.005457 0.962489
vt 0.033605 0.962489
vt 0.033605 0.990636
vt 0.005457 0.990636
vt 0.954591 0.950685
vt 0.990721 0.950685
vt 0.990721 0.986815
vt 0.954591 0.986815
vt -0.003240 0.988947
vt 0.003240 0.988947
vt 0.003240 0.995428
vt -0.003240 0.995428
vt 0.009910 0.978660
vt 0.029153 0.978660
vt 0.029153 0.997903
vt 0.009910 0.997903
vn 0.0000 1.0000 0.0000
vn -0.4689 0.0000 0.8833
vn -0.4694 0.0000 -0.8830
vn 0.0000 -1.0000 0.0000
vn 0.4694 0.0000 0.8830
vn 0.4689 0.0000 -0.8833
usemtl Material
s off
f 1/1/1 5/2/1 7/3/1 3/4/1
f 4/5/2 3/6/2 7/7/2 8/8/2
f 8/9/3 7/10/3 5/11/3 6/12/3
f 6/13/4 2/14/4 4/15/4 8/16/4
f 2/17/5 1/18/5 3/19/5 4/20/5
f 6/21/6 5/22/6 1/23/6 2/24/6
